<svg width="50" height="56" viewBox="0 0 50 56" fill="none" xmlns="http://www.w3.org/2000/svg">
<g clip-path="url(#clip0_1693_52)">
<path d="M24.723 4.23641C29.904 3.78417 34.7756 6.78946 37.1416 11.3389C38.2558 13.4816 38.8471 15.873 38.9814 18.2802C39.1234 20.8443 38.9364 23.9564 37.2866 26.0523C36.4617 27.1002 35.2956 27.7365 33.9518 27.6831C32.7421 27.6341 31.0767 26.7739 31.4656 25.309C31.9294 23.5574 34.1276 24.6584 34.9578 25.4918C35.9276 26.4639 36.47 27.8316 36.6241 29.1816C37.2132 34.3053 33.0935 39.8793 29.1795 42.7417C24.4833 46.1777 18.4807 46.5633 13.4424 43.7283C12.6799 43.3009 11.9225 44.3426 12.6569 44.8668C18.067 48.7158 25.7295 47.3756 30.6937 43.4341C35.3486 39.7371 40.6105 31.5198 36.8531 25.6369C35.6899 23.8197 32.5388 21.6915 30.6148 23.813C28.7653 25.8521 30.9525 28.5731 33.129 28.9826C40.4361 30.3672 40.8155 19.7359 39.6922 15.0962C38.042 8.28215 31.9594 2.55654 24.6108 3.61999C24.2093 3.67761 24.3308 4.26523 24.7223 4.23238L24.723 4.23641Z" fill="black"/>
<path d="M15.1857 48.4823C13.2713 46.0025 11.3439 43.5312 9.38231 41.0893C9.25592 41.4354 9.13191 41.7832 9.00552 42.1293C12.1128 41.9127 15.2204 42.0064 18.3077 42.389C18.1357 42.0273 17.9645 41.6696 17.7925 41.3079C16.7824 42.996 15.8819 44.7492 15.2053 46.6005C15.1675 46.7012 14.6913 47.8242 14.7737 47.8881C15.4147 48.0027 15.5754 47.9022 15.2581 47.5882C15.1007 47.3632 14.9439 47.1424 14.7864 46.9175C14.1596 46.0235 13.5288 45.1303 12.902 44.2363C12.5723 44.5971 12.2449 44.9596 11.9151 45.3204C12.5902 45.839 13.2659 46.3616 13.9409 46.8802C14.7062 47.4716 15.4727 46.2741 14.7808 45.6629C13.5259 44.554 12.3307 43.3841 11.1861 42.1612L10.3776 43.3331L13.9998 45.0994C14.8038 45.4921 15.2324 44.2905 14.6597 43.7967C13.4092 42.712 11.7571 42.4741 10.4047 41.5727C10.2443 42.0293 10.0832 42.4818 9.92279 42.9383C12.0932 43.1428 14.263 43.287 16.4364 43.4619C17.2982 43.5315 17.6498 42.1359 16.7583 41.926C15.2367 41.5702 13.7389 41.5162 12.1869 41.7137L12.4868 43.3615C13.208 43.2531 13.926 43.1849 14.6547 43.1979C14.9741 43.2034 15.2917 43.2217 15.6115 43.2521C16.2233 43.4346 16.261 43.2986 15.7205 42.8446C15.091 42.7133 13.7064 44.6539 13.3831 45.1072L14.8777 46.1385C15.457 45.3192 16.034 44.4983 16.6085 43.6757C17.3106 42.6734 15.8595 41.7674 15.09 42.6281C14.1085 43.73 12.5612 47.1895 14.4141 48.2107C14.7863 48.4146 15.2001 48.4359 15.5446 48.1557C16.7983 47.143 17.6735 44.5303 16.6559 43.1131C15.9119 42.0784 13.2858 41.3022 12.7512 42.9274C12.6537 43.2265 12.693 43.6024 12.9176 43.842C13.8282 44.8084 15.2219 44.8046 16.3769 44.3016C17.2368 43.926 16.9867 42.5521 16.0506 42.5087C15.2533 42.473 14.4763 42.5146 13.6874 42.6397C12.6055 42.8128 12.7379 44.3979 13.7843 44.5104C15.3084 44.6741 16.5092 43.8961 17.733 43.0846C18.7465 42.4099 17.5223 40.9664 16.5201 41.6348C15.7201 42.168 14.9325 42.7343 13.9284 42.6264C13.961 43.2513 13.9928 43.8721 14.0254 44.497C14.6582 44.3946 15.2657 44.3593 15.9058 44.3887C15.7973 43.7924 15.688 43.1921 15.5795 42.5959C15.3231 42.7078 14.618 42.9049 14.3602 42.6319C14.416 42.9381 14.471 43.2402 14.5267 43.5464C14.6648 43.8249 14.8232 44.0892 15.0059 44.3386C15.2859 44.5846 15.3193 44.8824 15.1134 45.2266C15.0554 45.7079 14.7114 46.4253 14.3474 46.7238C14.7251 46.706 15.1003 46.6866 15.4779 46.6688C15.3141 46.5804 15.679 45.2011 15.7237 45.0804C15.917 44.5303 16.2286 44.1041 16.6101 43.6733L15.0917 42.6257C14.5219 43.4515 13.9521 44.2774 13.3824 45.1032C12.7218 46.0708 14.2125 47.1027 14.877 46.1344C15.2805 45.5497 15.7182 45.0273 16.2844 44.5936C16.6643 44.3026 17.131 44.0996 17.4448 43.7313C17.8159 43.3004 18.0091 42.7608 17.6899 42.2305C17.2989 41.5803 16.4176 41.5746 15.7401 41.523C14.5496 41.4308 13.36 41.5155 12.1838 41.708C11.1171 41.8845 11.4206 43.5067 12.4837 43.3558C13.8244 43.1641 15.1061 43.231 16.4356 43.4578L16.5568 41.8821C14.3809 41.8077 12.2052 41.6312 10.0377 41.4428C9.30588 41.3783 8.93183 42.399 9.55575 42.8084C10.91 43.6969 12.5948 43.9433 13.8255 45.0109C14.0441 44.5769 14.2668 44.1421 14.4854 43.7082C13.2793 43.1192 12.0733 42.5301 10.8648 41.9395C10.2049 41.618 9.58334 42.6054 10.0563 43.1114C11.2914 44.4322 12.5872 45.6855 13.9409 46.8802L14.7808 45.6629C14.1074 45.1419 13.43 44.6217 12.7566 44.1008C12.0595 43.5634 11.3177 44.5418 11.7698 45.1849C12.5674 46.3201 13.3049 47.7766 14.281 48.76C14.6865 49.1702 15.1223 49.4144 15.6663 49.0535C16.4354 48.5448 16.5779 47.1213 16.8865 46.3125C17.4521 44.8461 18.1347 43.4393 18.9327 42.084C19.2031 41.6258 18.9616 41.0646 18.4175 41.0028C15.2089 40.628 12.0008 40.5883 8.78004 40.8675C8.28803 40.9085 8.11852 41.5666 8.40325 41.9075C10.4185 44.3125 12.4665 46.6802 14.5251 49.0376C14.8903 49.4552 15.5193 48.9204 15.1841 48.4847L15.1857 48.4823Z" fill="black"/>
</g>
<defs>
<clipPath id="clip0_1693_52">
<rect width="46.3704" height="28.6115" fill="white" transform="translate(0.0410156 39.0625) rotate(-55.3967)"/>
</clipPath>
</defs>
</svg>
